[ConversionWorker] Logging FFmpeg output to: ffmpeg_logs\ffmpeg_conversion_高冷_05_wav_20250525_173723.log\n[ConversionWorker] Getting duration with command: ffprobe -v error -show_entries format=duration -of default=noprint_wrappers=1:nokey=1 Z:\Story\高冷\高冷 05.wav\n[ConversionWorker] Duration for 高冷 05.wav: 3251236 ms\n[ConversionWorker] Starting FFmpeg for 高冷 05.wav: ffmpeg -i Z:\Story\高冷\高冷 05.wav -b:a 128k -vn -y -loglevel error -stats -progress pipe:1 Z:\Story\高冷\高冷 05.mp3\n[ConversionWorker] FFmpeg process started. PID: 23864\n[STDOUT RAW] bitrate= 123.1kbits/s\n[STDOUT RAW] total_size=67244\n[STDOUT RAW] out_time_us=4369958\n[STDOUT RAW] out_time_ms=4369958\n[STDOUT RAW] out_time=00:00:04.369958\n[STDOUT RAW] dup_frames=0\n[STDOUT RAW] drop_frames=0\n[STDOUT RAW] speed=8.37x\n[STDOUT RAW] progress=continue\n[STDERR RAW] size=      66KiB time=00:00:04.36 bitrate= 123.1kbits/s speed=8.37x\n[STDOUT RAW] bitrate= 125.7kbits/s\n[STDOUT RAW] total_size=145196\n[STDOUT RAW] out_time_us=9241958\n[STDOUT RAW] out_time_ms=9241958\n[STDOUT RAW] out_time=00:00:09.241958\n[STDOUT RAW] dup_frames=0\n[STDOUT RAW] drop_frames=0\n[STDOUT RAW] speed=8.96x\n[STDOUT RAW] progress=continue\n[STDERR RAW] size=     142KiB time=00:00:09.24 bitrate= 125.7kbits/s speed=8.96x\n[STDOUT RAW] bitrate= 126.5kbits/s\n[STDOUT RAW] total_size=223532\n[STDOUT RAW] out_time_us=14137958\n[STDOUT RAW] out_time_ms=14137958\n[STDOUT RAW] out_time=00:00:14.137958\n[STDOUT RAW] dup_frames=0\n[STDOUT RAW] drop_frames=0\n[STDOUT RAW] speed=9.09x\n[STDOUT RAW] progress=continue\n[STDERR RAW] size=     218KiB time=00:00:14.13 bitrate= 126.5kbits/s speed=9.09x\n[STDOUT RAW] bitrate=  99.5kbits/s\n[STDOUT RAW] total_size=786432\n[STDOUT RAW] out_time_us=63217958\n[STDOUT RAW] out_time_ms=63217958\n[STDOUT RAW] out_time=00:01:03.217958\n[STDOUT RAW] dup_frames=0\n[STDOUT RAW] drop_frames=0\n[STDOUT RAW] speed=30.6x\n[STDOUT RAW] progress=continue\n[STDOUT RAW] bitrate= 127.1kbits/s\n[STDERR RAW] size=     768KiB time=00:01:03.21 bitrate=  99.5kbits/s speed=30.6x\n[STDOUT RAW] total_size=2883584\n[STDOUT RAW] out_time_us=181441958\n[STDOUT RAW] out_time_ms=181441958\n[STDOUT RAW] out_time=00:03:01.441958\n[STDOUT RAW] dup_frames=0\n[STDOUT RAW] drop_frames=0\n[STDOUT RAW] speed=70.5x\n[STDOUT RAW] progress=continue\n[STDERR RAW] size=    2816KiB time=00:03:01.44 bitrate= 127.1kbits/s speed=70.5x\n[STDOUT RAW] bitrate= 124.2kbits/s\n[STDOUT RAW] total_size=4718592\n[STDOUT RAW] out_time_us=304033958\n[STDOUT RAW] out_time_ms=304033958\n[STDOUT RAW] out_time=00:05:04.033958\n[STDOUT RAW] dup_frames=0\n[STDOUT RAW] drop_frames=0\n[STDOUT RAW] speed=98.1x\n[STDOUT RAW] progress=continue\n[STDERR RAW] size=    4608KiB time=00:05:04.03 bitrate= 124.2kbits/s speed=98.1x\n[STDOUT RAW] bitrate= 123.1kbits/s\n[STDOUT RAW] total_size=6553600\n[STDOUT RAW] out_time_us=425809958\n[STDOUT RAW] out_time_ms=425809958\n[STDOUT RAW] out_time=00:07:05.809958\n[STDOUT RAW] dup_frames=0\n[STDOUT RAW] drop_frames=0\n[STDOUT RAW] speed= 118x\n[STDOUT RAW] progress=continue\n[STDERR RAW] size=    6400KiB time=00:07:05.80 bitrate= 123.1kbits/s speed= 118x\n[STDOUT RAW] bitrate= 124.4kbits/s\n[STDOUT RAW] total_size=8650752\n[STDOUT RAW] out_time_us=556489958\n[STDOUT RAW] out_time_ms=556489958\n[STDOUT RAW] out_time=00:09:16.489958\n[STDOUT RAW] dup_frames=0\n[STDOUT RAW] drop_frames=0\n[STDOUT RAW] speed= 135x\n[STDOUT RAW] progress=continue\n[STDERR RAW] size=    8448KiB time=00:09:16.48 bitrate= 124.4kbits/s speed= 135x\n[STDOUT RAW] bitrate= 125.0kbits/s\n[STDOUT RAW] total_size=10747904\n[STDOUT RAW] out_time_us=687697958\n[STDOUT RAW] out_time_ms=687697958\n[STDOUT RAW] out_time=00:11:27.697958\n[STDOUT RAW] dup_frames=0\n[STDOUT RAW] drop_frames=0\n[STDOUT RAW] speed= 148x\n[STDOUT RAW] progress=continue\n[STDERR RAW] size=   10496KiB time=00:11:27.69 bitrate= 125.0kbits/s speed= 148x\n[STDOUT RAW] bitrate= 125.5kbits/s\n[STDOUT RAW] total_size=12845056\n[STDOUT RAW] out_time_us=819049958\n[STDOUT RAW] out_time_ms=819049958\n[STDOUT RAW] out_time=00:13:39.049958\n[STDOUT RAW] dup_frames=0\n[STDOUT RAW] drop_frames=0\n[STDOUT RAW] speed= 159x\n[STDOUT RAW] progress=continue\n[STDERR RAW] size=   12544KiB time=00:13:39.04 bitrate= 125.5kbits/s speed= 159x\n[STDOUT RAW] bitrate= 126.1kbits/s\n[STDOUT RAW] total_size=14942208\n[STDOUT RAW] out_time_us=948289958\n[STDOUT RAW] out_time_ms=948289958\n[STDOUT RAW] out_time=00:15:48.289958\n[STDOUT RAW] dup_frames=0\n[STDOUT RAW] drop_frames=0\n[STDOUT RAW] speed= 167x\n[STDOUT RAW] progress=continue\n[STDERR RAW] size=   14592KiB time=00:15:48.28 bitrate= 126.1kbits/s speed= 167x\n[STDOUT RAW] bitrate= 126.1kbits/s\n[STDOUT RAW] total_size=17039360\n[STDOUT RAW] out_time_us=1081033958\n[STDOUT RAW] out_time_ms=1081033958\n[STDOUT RAW] out_time=00:18:01.033958\n[STDOUT RAW] dup_frames=0\n[STDOUT RAW] drop_frames=0\n[STDOUT RAW] speed= 175x\n[STDOUT RAW] progress=continue\n[STDERR RAW] size=   16640KiB time=00:18:01.03 bitrate= 126.1kbits/s speed= 175x\n[STDOUT RAW] bitrate= 126.4kbits/s\n[STDOUT RAW] total_size=18874368\n[STDOUT RAW] out_time_us=1194913958\n[STDOUT RAW] out_time_ms=1194913958\n[STDOUT RAW] out_time=00:19:54.913958\n[STDOUT RAW] dup_frames=0\n[STDOUT RAW] drop_frames=0\n[STDOUT RAW] speed= 178x\n[STDOUT RAW] progress=continue\n[STDERR RAW] size=   18432KiB time=00:19:54.91 bitrate= 126.4kbits/s speed= 178x\n[STDOUT RAW] bitrate= 126.4kbits/s\n[STDOUT RAW] total_size=20709376\n[STDOUT RAW] out_time_us=1310857958\n[STDOUT RAW] out_time_ms=1310857958\n[STDOUT RAW] out_time=00:21:50.857958\n[STDOUT RAW] dup_frames=0\n[STDOUT RAW] drop_frames=0\n[STDOUT RAW] speed= 182x\n[STDOUT RAW] progress=continue\n[STDERR RAW] size=   20224KiB time=00:21:50.85 bitrate= 126.4kbits/s speed= 182x\n[STDOUT RAW] bitrate= 126.6kbits/s\n[STDOUT RAW] total_size=22544384\n[STDOUT RAW] out_time_us=1424353958\n[STDOUT RAW] out_time_ms=1424353958\n[STDOUT RAW] out_time=00:23:44.353958\n[STDOUT RAW] dup_frames=0\n[STDOUT RAW] drop_frames=0\n[STDOUT RAW] speed= 184x\n[STDOUT RAW] progress=continue\n[STDERR RAW] size=   22016KiB time=00:23:44.35 bitrate= 126.6kbits/s speed= 184x\n[STDOUT RAW] bitrate= 127.9kbits/s\n[STDOUT RAW] total_size=24379392\n[STDOUT RAW] out_time_us=1524937958\n[STDOUT RAW] out_time_ms=1524937958\n[STDOUT RAW] out_time=00:25:24.937958\n[STDOUT RAW] dup_frames=0\n[STDOUT RAW] drop_frames=0\n[STDOUT RAW] speed= 185x\n[STDOUT RAW] progress=continue\n[STDERR RAW] size=   23808KiB time=00:25:24.93 bitrate= 127.9kbits/s speed= 185x\n[STDOUT RAW] bitrate= 127.7kbits/s\n[STDOUT RAW] total_size=25952256\n[STDOUT RAW] out_time_us=1626121958\n[STDOUT RAW] out_time_ms=1626121958\n[STDOUT RAW] out_time=00:27:06.121958\n[STDOUT RAW] dup_frames=0\n[STDOUT RAW] drop_frames=0\n[STDOUT RAW] speed= 186x\n[STDOUT RAW] progress=continue\n[STDOUT RAW] bitrate= 127.8kbits/s\n[STDOUT RAW] total_size=27525120\n[STDOUT RAW] out_time_us=1722649958\n[STDERR RAW] size=   25344KiB time=00:27:06.12 bitrate= 127.7kbits/s speed= 186x\n[STDOUT RAW] out_time_ms=1722649958\n[STDOUT RAW] out_time=00:28:42.649958\n[STDOUT RAW] dup_frames=0\n[STDOUT RAW] drop_frames=0\n[STDOUT RAW] speed= 186x\n[STDOUT RAW] progress=continue\n[STDERR RAW] size=   26880KiB time=00:28:42.64 bitrate= 127.8kbits/s speed= 186x\n[STDOUT RAW] bitrate= 127.5kbits/s\n[STDOUT RAW] total_size=29097984\n[STDOUT RAW] out_time_us=1825921958\n[STDOUT RAW] out_time_ms=1825921958\n[STDOUT RAW] out_time=00:30:25.921958\n[STDOUT RAW] dup_frames=0\n[STDOUT RAW] drop_frames=0\n[STDOUT RAW] speed= 186x\n[STDOUT RAW] progress=continue\n[STDERR RAW] size=   28416KiB time=00:30:25.92 bitrate= 127.5kbits/s speed= 186x\n[STDOUT RAW] bitrate= 127.3kbits/s\n[STDOUT RAW] total_size=30670848\n[STDOUT RAW] out_time_us=1926889958\n[STDOUT RAW] out_time_ms=1926889958\n[STDOUT RAW] out_time=00:32:06.889958\n[STDOUT RAW] dup_frames=0\n[STDOUT RAW] drop_frames=0\n[STDOUT RAW] speed= 187x\n[STDOUT RAW] progress=continue\n[STDOUT RAW] bitrate= 127.3kbits/s\n[STDERR RAW] size=   29952KiB time=00:32:06.88 bitrate= 127.3kbits/s speed= 187x\n[STDOUT RAW] total_size=32243712\n[STDOUT RAW] out_time_us=2026465958\n[STDOUT RAW] out_time_ms=2026465958\n[STDOUT RAW] out_time=00:33:46.465958\n[STDOUT RAW] dup_frames=0\n[STDOUT RAW] drop_frames=0\n[STDOUT RAW] speed= 187x\n[STDOUT RAW] progress=continue\n[STDERR RAW] size=   31488KiB time=00:33:46.46 bitrate= 127.3kbits/s speed= 187x\n[STDOUT RAW] bitrate= 127.3kbits/s\n[STDOUT RAW] total_size=33816576\n[STDOUT RAW] out_time_us=2125537958\n[STDOUT RAW] out_time_ms=2125537958\n[STDOUT RAW] out_time=00:35:25.537958\n[STDOUT RAW] dup_frames=0\n[STDOUT RAW] drop_frames=0\n[STDOUT RAW] speed= 187x\n[STDOUT RAW] progress=continue\n[STDERR RAW] size=   33024KiB time=00:35:25.53 bitrate= 127.3kbits/s speed= 187x\n[STDOUT RAW] bitrate= 127.9kbits/s\n[STDOUT RAW] total_size=35651584\n[STDOUT RAW] out_time_us=2229265958\n[STDOUT RAW] out_time_ms=2229265958\n[STDOUT RAW] out_time=00:37:09.265958\n[STDOUT RAW] dup_frames=0\n[STDOUT RAW] drop_frames=0\n[STDOUT RAW] speed= 188x\n[STDOUT RAW] progress=continue\n[STDERR RAW] size=   34816KiB time=00:37:09.26 bitrate= 127.9kbits/s speed= 188x\n[STDOUT RAW] bitrate= 127.6kbits/s\n[STDOUT RAW] total_size=37224448\n[STDOUT RAW] out_time_us=2333041958\n[STDOUT RAW] out_time_ms=2333041958\n[STDOUT RAW] out_time=00:38:53.041958\n[STDOUT RAW] dup_frames=0\n[STDOUT RAW] drop_frames=0\n[STDOUT RAW] speed= 188x\n[STDOUT RAW] progress=continue\n[STDERR RAW] size=   36352KiB time=00:38:53.04 bitrate= 127.6kbits/s speed= 188x\n[STDOUT RAW] bitrate= 127.7kbits/s\n[STDOUT RAW] total_size=38797312\n[STDOUT RAW] out_time_us=2430745958\n[STDOUT RAW] out_time_ms=2430745958\n[STDOUT RAW] out_time=00:40:30.745958\n[STDOUT RAW] dup_frames=0\n[STDOUT RAW] drop_frames=0\n[STDOUT RAW] speed= 188x\n[STDOUT RAW] progress=continue\n[STDERR RAW] size=   37888KiB time=00:40:30.74 bitrate= 127.7kbits/s speed= 188x\n[STDOUT RAW] bitrate= 127.5kbits/s\n[STDOUT RAW] total_size=40370176\n[STDOUT RAW] out_time_us=2532313958\n[STDOUT RAW] out_time_ms=2532313958\n[STDOUT RAW] out_time=00:42:12.313958\n[STDOUT RAW] dup_frames=0\n[STDOUT RAW] drop_frames=0\n[STDOUT RAW] speed= 189x\n[STDOUT RAW] progress=continue\n[STDERR RAW] size=   39424KiB time=00:42:12.31 bitrate= 127.5kbits/s speed= 189x\n[STDOUT RAW] bitrate= 127.7kbits/s\n[STDOUT RAW] total_size=41943040\n[STDOUT RAW] out_time_us=2628169958\n[STDOUT RAW] out_time_ms=2628169958\n[STDOUT RAW] out_time=00:43:48.169958\n[STDOUT RAW] dup_frames=0\n[STDOUT RAW] drop_frames=0\n[STDOUT RAW] speed= 189x\n[STDOUT RAW] progress=continue\n[STDERR RAW] size=   40960KiB time=00:43:48.16 bitrate= 127.7kbits/s speed= 189x\n[STDOUT RAW] bitrate= 127.6kbits/s\n[STDOUT RAW] total_size=43515904\n[STDOUT RAW] out_time_us=2727385958\n[STDOUT RAW] out_time_ms=2727385958\n[STDOUT RAW] out_time=00:45:27.385958\n[STDOUT RAW] dup_frames=0\n[STDOUT RAW] drop_frames=0\n[STDOUT RAW] speed= 189x\n[STDOUT RAW] progress=continue\n[STDERR RAW] size=   42496KiB time=00:45:27.38 bitrate= 127.6kbits/s speed= 189x\n[STDOUT RAW] bitrate= 127.5kbits/s\n[STDOUT RAW] total_size=45088768\n[STDOUT RAW] out_time_us=2829385958\n[STDOUT RAW] out_time_ms=2829385958\n[STDOUT RAW] out_time=00:47:09.385958\n[STDOUT RAW] dup_frames=0\n[STDOUT RAW] drop_frames=0\n[STDOUT RAW] speed= 189x\n[STDOUT RAW] progress=continue\n[STDERR RAW] size=   44032KiB time=00:47:09.38 bitrate= 127.5kbits/s speed= 189x\n[STDOUT RAW] bitrate= 127.3kbits/s\n[STDOUT RAW] total_size=46661632\n[STDOUT RAW] out_time_us=2932873958\n[STDOUT RAW] out_time_ms=2932873958\n[STDOUT RAW] out_time=00:48:52.873958\n[STDOUT RAW] dup_frames=0\n[STDOUT RAW] drop_frames=0\n[STDOUT RAW] speed= 189x\n[STDOUT RAW] progress=continue\n[STDERR RAW] size=   45568KiB time=00:48:52.87 bitrate= 127.3kbits/s speed= 189x\n[STDOUT RAW] bitrate= 127.7kbits/s\n[STDOUT RAW] total_size=48496640\n[STDOUT RAW] out_time_us=3037321958\n[STDOUT RAW] out_time_ms=3037321958\n[STDOUT RAW] out_time=00:50:37.321958\n[STDOUT RAW] dup_frames=0\n[STDOUT RAW] drop_frames=0\n[STDOUT RAW] speed= 190x\n[STDOUT RAW] progress=continue\n[STDERR RAW] size=   47360KiB time=00:50:37.32 bitrate= 127.7kbits/s speed= 190x\n[STDOUT RAW] bitrate= 127.6kbits/s\n[STDOUT RAW] total_size=50069504\n[STDOUT RAW] out_time_us=3138049958\n[STDOUT RAW] out_time_ms=3138049958\n[STDOUT RAW] out_time=00:52:18.049958\n[STDOUT RAW] dup_frames=0\n[STDOUT RAW] drop_frames=0\n[STDOUT RAW] speed= 190x\n[STDOUT RAW] progress=continue\n[STDERR RAW] size=   48896KiB time=00:52:18.04 bitrate= 127.6kbits/s speed= 190x\n[STDOUT RAW] bitrate= 127.6kbits/s\n[STDOUT RAW] total_size=51642368\n[STDOUT RAW] out_time_us=3238753958\n[STDOUT RAW] out_time_ms=3238753958\n[STDOUT RAW] out_time=00:53:58.753958\n[STDOUT RAW] dup_frames=0\n[STDOUT RAW] drop_frames=0\n[STDOUT RAW] speed= 190x\n[STDOUT RAW] progress=continue\n[STDOUT RAW] bitrate= 128.0kbits/s\n[STDOUT RAW] total_size=52021292\n[STDOUT RAW] out_time_us=3251236000\n[STDOUT RAW] out_time_ms=3251236000\n[STDERR RAW] size=   50432KiB time=00:53:58.75 bitrate= 127.6kbits/s speed= 190x\n[STDOUT RAW] out_time=00:54:11.236000\n[STDOUT RAW] dup_frames=0\n[STDOUT RAW] drop_frames=0\n[STDOUT RAW] speed= 190x\n[STDOUT RAW] progress=end\n[STDERR RAW] size=   50802KiB time=00:54:11.23 bitrate= 128.0kbits/s speed= 190x\n[ConversionWorker] STDERR pipe closed signal received.\n[ConversionWorker] Detected 'progress=end' for 高冷 05.wav\n[ConversionWorker] STDOUT pipe closed signal received.\n[ConversionWorker] Process finished and both stream pipes closed. Exiting loop.\n[ConversionWorker] Waiting for reader threads to join...\n[ConversionWorker] FFmpeg process ended. Return code: 0\n[ConversionWorker] Closing FFmpeg log file.\n